G04 MADE WITH FRITZING*
G04 WWW.FRITZING.ORG*
G04 SINGLE SIDED*
G04 HOLES NOT PLATED*
G04 CONTOUR ON CENTER OF CONTOUR VECTOR*
%ASAXBY*%
%FSLAX23Y23*%
%MOIN*%
%OFA0B0*%
%SFA1.0B1.0*%
%ADD10C,0.075000*%
%ADD11C,0.055433*%
%ADD12C,0.075433*%
%ADD13C,0.024000*%
%LNCOPPER0*%
G90*
G70*
G54D10*
X505Y1105D03*
X605Y1105D03*
X705Y1105D03*
X505Y751D03*
X605Y751D03*
X705Y751D03*
G54D11*
X1118Y1302D03*
X1374Y1302D03*
G54D10*
X547Y1381D03*
X947Y1381D03*
X862Y751D03*
X1262Y751D03*
X626Y515D03*
X1026Y515D03*
G54D12*
X114Y1538D03*
X232Y1617D03*
X350Y1617D03*
X1453Y121D03*
X1256Y987D03*
X468Y1617D03*
X114Y1420D03*
X823Y1617D03*
X1295Y1617D03*
X1177Y1617D03*
X587Y1617D03*
X1059Y1617D03*
X114Y869D03*
X705Y1617D03*
X941Y1617D03*
X114Y1184D03*
X1453Y515D03*
X665Y1499D03*
X1453Y633D03*
X1453Y869D03*
X1453Y1105D03*
X1453Y751D03*
X1453Y396D03*
X114Y1026D03*
X783Y1499D03*
X941Y987D03*
X114Y1302D03*
X1453Y278D03*
X1059Y987D03*
X1453Y987D03*
G54D13*
X943Y1302D02*
X1089Y1302D01*
D02*
X510Y1302D02*
X943Y1302D01*
D02*
X505Y1134D02*
X510Y1302D01*
D02*
X1453Y1134D02*
X1454Y1302D01*
D02*
X1454Y1302D02*
X1403Y1302D01*
D02*
X505Y779D02*
X505Y1076D01*
D02*
X623Y543D02*
X607Y722D01*
D02*
X510Y395D02*
X505Y722D01*
D02*
X1424Y396D02*
X510Y395D01*
D02*
X845Y774D02*
X621Y1082D01*
D02*
X706Y632D02*
X705Y722D01*
D02*
X1424Y633D02*
X706Y632D01*
D02*
X1424Y515D02*
X1055Y515D01*
D02*
X1424Y751D02*
X1291Y751D01*
D02*
X1424Y869D02*
X939Y869D01*
D02*
X939Y869D02*
X725Y1085D01*
D02*
X428Y1380D02*
X428Y1498D01*
D02*
X428Y280D02*
X428Y1380D01*
D02*
X428Y1498D02*
X636Y1499D01*
D02*
X1424Y278D02*
X428Y280D01*
D02*
X428Y1380D02*
X519Y1380D01*
D02*
X943Y1291D02*
X946Y1352D01*
D02*
X943Y1291D02*
X941Y1016D01*
D02*
X114Y1055D02*
X114Y1155D01*
D02*
X114Y898D02*
X114Y997D01*
D02*
X1424Y121D02*
X113Y121D01*
D02*
X113Y121D02*
X114Y840D01*
D02*
X1424Y987D02*
X1285Y987D01*
D02*
X1088Y987D02*
X1227Y987D01*
D02*
X1254Y1498D02*
X812Y1499D01*
D02*
X1256Y1016D02*
X1254Y1498D01*
D02*
X114Y1449D02*
X114Y1509D01*
D02*
X114Y1331D02*
X114Y1391D01*
D02*
X1532Y198D02*
X273Y198D01*
D02*
X1532Y395D02*
X1532Y198D01*
D02*
X1482Y396D02*
X1532Y395D01*
D02*
X273Y198D02*
X273Y1421D01*
D02*
X273Y1421D02*
X143Y1420D01*
D02*
X322Y1617D02*
X261Y1617D01*
D02*
X558Y1617D02*
X497Y1617D01*
D02*
X794Y1617D02*
X733Y1617D01*
D02*
X1030Y1617D02*
X970Y1617D01*
D02*
X1266Y1617D02*
X1206Y1617D01*
G04 End of Copper0*
M02*