; NON-PLATED HOLES START AT T1
; THROUGH (PLATED) HOLES START AT T100
M48
INCH
T100C0.035000
T101C0.035433
%
T100
X006259Y005145
X009471Y013806
X008621Y007507
X005471Y013806
X007046Y007507
X006046Y007507
X005046Y007507
X010259Y005145
X007046Y011050
X006046Y011050
X012621Y007507
X005046Y011050
T101
X009408Y009869
X001141Y008688
X001141Y010263
X014527Y008688
X008227Y016168
X003503Y016168
X013739Y013019
X014527Y007507
X010590Y016168
X004684Y016168
X014527Y005145
X006653Y014987
X014527Y001208
X014527Y003963
X014527Y011050
X001141Y015381
X007046Y016168
X012952Y016168
X001141Y013019
X014527Y009869
X010590Y009869
X011180Y013019
X001141Y014200
X012558Y009869
X001141Y011838
X009408Y016168
X002322Y016168
X011771Y016168
X005865Y016168
X014527Y006326
X007834Y014987
X014527Y002782
T00
M30
